<?xml version="1.0" standalone="no"?>
<!DOCTYPE svg PUBLIC "-//W3C//DTD SVG 20010904//EN"
 "http://www.w3.org/TR/2001/REC-SVG-20010904/DTD/svg10.dtd">
<svg version="1.0" xmlns="http://www.w3.org/2000/svg"
 width="1707.000000pt" height="1707.000000pt" viewBox="0 0 1707.000000 1707.000000"
 preserveAspectRatio="xMidYMid meet">
<metadata>
Created by potrace 1.11, written by Peter Selinger 2001-2013
</metadata>
<g transform="translate(0.000000,1707.000000) scale(0.100000,-0.100000)"
fill="#000000" stroke="none">
<path d="M8350 17067 c-3 -2 -84 -10 -180 -16 -888 -60 -1460 -153 -2135 -347
-1293 -373 -2378 -1039 -3140 -1929 -341 -397 -639 -885 -823 -1345 -474
-1187 -463 -2596 30 -3755 392 -922 1118 -1662 2240 -2283 682 -378 1519 -705
2456 -961 406 -111 656 -168 1367 -311 723 -146 935 -196 1200 -284 383 -128
664 -274 798 -414 31 -33 57 -65 57 -70 0 -35 -364 -130 -640 -166 -653 -86
-1507 -18 -2295 184 -489 125 -784 247 -1330 549 -388 214 -697 366 -882 431
-173 61 -299 83 -483 83 -119 0 -186 -4 -240 -17 -269 -60 -510 -186 -747
-390 -139 -120 -262 -254 -528 -577 -115 -140 -336 -407 -490 -594 -761 -924
-920 -1174 -1021 -1611 -47 -202 -34 -378 44 -604 27 -79 106 -233 160 -315
235 -354 701 -720 1292 -1015 685 -343 1742 -719 2600 -926 637 -154 1397
-275 2070 -329 877 -70 1176 -70 2015 0 914 77 1794 283 2538 596 212 89 596
283 782 396 475 286 881 625 1215 1013 591 686 1004 1580 1165 2514 39 228 86
671 92 866 8 260 -40 738 -107 1069 -91 444 -220 826 -421 1239 -405 834 -947
1405 -1839 1934 -398 237 -1001 517 -1532 711 -759 278 -1494 481 -2518 693
-961 199 -1336 303 -1620 450 -99 51 -220 138 -220 158 0 42 395 196 684 267
207 50 324 62 601 61 669 -1 1061 -105 2035 -540 713 -318 881 -386 1083 -440
93 -24 118 -27 287 -27 269 0 429 37 640 146 241 126 482 364 771 764 435 602
681 946 795 1115 290 430 414 666 491 940 32 114 36 140 40 292 6 195 -5 292
-49 417 -132 377 -480 732 -1068 1085 -776 466 -1803 854 -2822 1065 -492 102
-880 153 -1523 202 -258 19 -883 38 -895 26z"/>
</g>
</svg>
